
<svg version="1.0" xmlns="http://www.w3.org/2000/svg"
 width="269.000000pt"  height="408.000000pt" viewBox="0 0 299.000000 408.000000"
 preserveAspectRatio="xMidYMid meet">

<g transform="translate(0.000000,408.000000) scale(0.100000,-0.100000)"
fill="#303030" stroke="none">
<path d="M72 4037 l-22 -23 0 -980 0 -981 23 -21 c23 -22 25 -22 475 -22 l452
0 0 -968 0 -969 23 -21 c21 -20 34 -22 148 -22 186 0 169 -50 169 488 l0 442
475 0 475 0 0 -448 c0 -422 1 -450 18 -465 15 -14 42 -17 149 -17 113 0 132 2
146 18 16 17 17 101 17 1009 0 946 -1 991 -18 1006 -15 14 -42 17 -149 17
-113 0 -132 -2 -146 -18 -15 -17 -17 -59 -17 -405 l0 -387 -476 0 -477 0 5
504 6 505 -22 20 c-22 21 -32 21 -479 21 l-457 0 0 848 0 849 -23 21 c-21 20
-34 22 -148 22 -118 0 -127 -1 -147 -23z"/>
</g>
</svg>